<svg class="main-svg" xmlns="http://www.w3.org/2000/svg" xmlns:xlink="http://www.w3.org/1999/xlink" width="700" height="500" style="" viewBox="0 0 700 500"><rect x="0" y="0" width="700" height="500" style="fill: rgb(255, 255, 255); fill-opacity: 1;"/><defs id="defs-4a75c7"><g class="clips"/><g class="gradients"/></defs><g class="bglayer"/><g class="layer-below"><g class="imagelayer"/><g class="shapelayer"/></g><g class="cartesianlayer"/><g class="polarlayer"/><g class="ternarylayer"/><g class="geolayer"/><g class="funnelarealayer"/><g class="pielayer"/><g class="treemaplayer"/><g class="sunburstlayer"><g class="trace sunburst" stroke-linejoin="round" style="opacity: 1;"><g class="slice cursor-pointer"><path class="surface" d="M350,240L440,240A90,90 0,0,0 401.562838833605,166.23501066617254L350,240A0,0 0,0,1 350,240Z" style="pointer-events: all; stroke-width: 1; fill: rgb(99, 110, 250); fill-opacity: 1; stroke: rgb(255, 255, 255); stroke-opacity: 1;"/><g class="slicetext"><text data-notex="1" class="slicetext" text-anchor="middle" x="0" y="0" style="font-family: 'Open Sans', verdana, arial, sans-serif; font-size: 12px; fill: rgb(255, 255, 255); fill-opacity: 1; white-space: pre;" transform="translate(393.4914478753629,217.33765291038165)scale(0)rotate(-27.52293577981652)">delta_eddington_scat_od</text></g></g><g class="slice"><path class="surface" d="M350,240L401.562838833605,166.23501066617254A90,90 0,0,0 347.26233702145726,150.04164740605842L350,240A0,0 0,0,1 350,240Z" style="pointer-events: all; stroke-width: 1; fill: rgb(239, 85, 59); fill-opacity: 1; stroke: rgb(255, 255, 255); stroke-opacity: 1; opacity: 0.7;"/><g class="slicetext"><text data-notex="1" class="slicetext" text-anchor="middle" x="0" y="0" style="font-family: 'Open Sans', verdana, arial, sans-serif; font-size: 12px; fill: rgb(68, 68, 68); fill-opacity: 1; white-space: pre;" transform="translate(364.9237631177028,189.9567932121364)scale(0)rotate(-73.3944954128441)">solver_spartacus_lw</text></g></g><g class="slice"><path class="surface" d="M350,240L347.26233702145726,150.04164740605842A90,90 0,0,0 294.04702098982136,169.50699226244842L350,240A0,0 0,0,1 350,240Z" style="pointer-events: all; stroke-width: 1; fill: rgb(0, 204, 150); fill-opacity: 1; stroke: rgb(255, 255, 255); stroke-opacity: 1; opacity: 0.7;"/><g class="slicetext"><text data-notex="1" class="slicetext" text-anchor="middle" x="0" y="0" style="font-family: 'Open Sans', verdana, arial, sans-serif; font-size: 12px; fill: rgb(68, 68, 68); fill-opacity: 1; white-space: pre;" transform="translate(333.00114400545243,193.5276923887039)scale(0)rotate(69.90825688073392)">deallocate_thermodynamics_arrays</text></g></g><g class="slice"><path class="surface" d="M350,240L294.04702098982136,169.50699226244842A90,90 0,0,0 265.3295210901221,209.48918222708662L350,240A0,0 0,0,1 350,240Z" style="pointer-events: all; stroke-width: 1; fill: rgb(171, 99, 250); fill-opacity: 1; stroke: rgb(255, 255, 255); stroke-opacity: 1; opacity: 0.7;"/><g class="slicetext"><text data-notex="1" class="slicetext" text-anchor="middle" x="0" y="0" style="font-family: 'Open Sans', verdana, arial, sans-serif; font-size: 12px; fill: rgb(68, 68, 68); fill-opacity: 1; white-space: pre;" transform="translate(300.9940102078863,209.01824892667364)scale(0.8562993726346438)rotate(35.688073394495405)">rrtm_kgb13</text></g></g><g class="slice"><path class="surface" d="M350,240L265.3295210901221,209.48918222708662A90,90 0,0,0 260.00046150230366,239.7117809831409L350,240A0,0 0,0,1 350,240Z" style="pointer-events: all; stroke-width: 1; fill: rgb(255, 161, 90); fill-opacity: 1; stroke: rgb(255, 255, 255); stroke-opacity: 1; opacity: 0.7;"/><g class="slicetext"><text data-notex="1" class="slicetext" text-anchor="middle" x="0" y="0" style="font-family: 'Open Sans', verdana, arial, sans-serif; font-size: 12px; fill: rgb(68, 68, 68); fill-opacity: 1; white-space: pre;" transform="translate(286.64173365708706,232.30626487568858)scale(0.8562993726346438)rotate(10)">read_input</text></g></g><g class="slice"><path class="surface" d="M350,240L260.00046150230366,239.7117809831409A90,90 0,0,0 264.48542719737287,268.05811537477496L350,240A0,0 0,0,1 350,240Z" style="pointer-events: all; stroke-width: 1; fill: rgb(25, 211, 243); fill-opacity: 1; stroke: rgb(255, 255, 255); stroke-opacity: 1; opacity: 0.7;"/><g class="slicetext"><text data-notex="1" class="slicetext" text-anchor="middle" x="0" y="0" style="font-family: 'Open Sans', verdana, arial, sans-serif; font-size: 12px; fill: rgb(68, 68, 68); fill-opacity: 1; white-space: pre;" transform="translate(297.65085992679127,248.28269694948654)scale(0)rotate(-8.990825688073414)">calc_reflectance_transmittance_z_sw</text></g></g><g class="slice"><path class="surface" d="M350,240L264.48542719737287,268.05811537477496A90,90 0,0,0 277.6657425959892,293.55142580557776L350,240A0,0 0,0,1 350,240Z" style="pointer-events: all; stroke-width: 1; fill: rgb(255, 102, 146); fill-opacity: 1; stroke: rgb(255, 255, 255); stroke-opacity: 1; opacity: 0.7;"/><g class="slicetext"><text data-notex="1" class="slicetext" text-anchor="middle" x="0" y="0" style="font-family: 'Open Sans', verdana, arial, sans-serif; font-size: 12px; fill: rgb(68, 68, 68); fill-opacity: 1; white-space: pre;" transform="translate(296.0330348095991,267.90150083671307)scale(0)rotate(-27.339449541284466)">srtm_taumol26</text></g></g><g class="slice"><path class="surface" d="M350,240L277.6657425959892,293.55142580557776A90,90 0,0,0 298.2011980960005,313.5994845179653L350,240A0,0 0,0,1 350,240Z" style="pointer-events: all; stroke-width: 1; fill: rgb(182, 232, 128); fill-opacity: 1; stroke: rgb(255, 255, 255); stroke-opacity: 1; opacity: 0.7;"/><g class="slicetext"><text data-notex="1" class="slicetext" text-anchor="middle" x="0" y="0" style="font-family: 'Open Sans', verdana, arial, sans-serif; font-size: 12px; fill: rgb(68, 68, 68); fill-opacity: 1; white-space: pre;" transform="translate(307.9609495967554,283.06107943933455)scale(0)rotate(-45.68807339449552)">get_real_array3</text></g></g><g class="slice"><path class="surface" d="M350,240L298.2011980960005,313.5994845179653A90,90 0,0,0 324.0036938444571,326.1637514635202L350,240A0,0 0,0,1 350,240Z" style="pointer-events: all; stroke-width: 1; fill: rgb(255, 151, 255); fill-opacity: 1; stroke: rgb(255, 255, 255); stroke-opacity: 1; opacity: 0.7;"/><g class="slicetext"><text data-notex="1" class="slicetext" text-anchor="middle" x="0" y="0" style="font-family: 'Open Sans', verdana, arial, sans-serif; font-size: 12px; fill: rgb(68, 68, 68); fill-opacity: 1; white-space: pre;" transform="translate(326.89632721429405,287.4466533869543)scale(0)rotate(-64.03669724770657)">param_cloud_effective_separation_eta</text></g></g><g class="slice"><path class="surface" d="M350,240L324.0036938444571,326.1637514635202A90,90 0,0,0 352.4495632965355,329.96665848888836L350,240A0,0 0,0,1 350,240Z" style="pointer-events: all; stroke-width: 1; fill: rgb(254, 203, 82); fill-opacity: 1; stroke: rgb(255, 255, 255); stroke-opacity: 1; opacity: 0.7;"/><g class="slicetext"><text data-notex="1" class="slicetext" text-anchor="middle" x="0" y="0" style="font-family: 'Open Sans', verdana, arial, sans-serif; font-size: 12px; fill: rgb(68, 68, 68); fill-opacity: 1; white-space: pre;" transform="translate(342.19742137468245,298.36354438454225)scale(0)rotate(-82.38532110091751)">allocate_flux_type</text></g></g><g class="slice"><path class="surface" d="M350,240L352.4495632965355,329.96665848888836A90,90 0,0,0 377.9211518628689,325.5593903592739L350,240A0,0 0,0,1 350,240Z" style="pointer-events: all; stroke-width: 1; fill: rgb(198, 202, 253); fill-opacity: 1; stroke: rgb(255, 255, 255); stroke-opacity: 1; opacity: 0.7;"/><g class="slicetext"><text data-notex="1" class="slicetext" text-anchor="middle" x="0" y="0" style="font-family: 'Open Sans', verdana, arial, sans-serif; font-size: 12px; fill: rgb(68, 68, 68); fill-opacity: 1; white-space: pre;" transform="translate(361.25329087796996,305.03783904928855)scale(0)rotate(80.18348623853205)">rrtm_kgb3</text></g></g><g class="slice"><path class="surface" d="M350,240L377.9211518628689,325.5593903592739A90,90 0,0,0 392.73517269043555,319.206723294924L350,240A0,0 0,0,1 350,240Z" style="pointer-events: all; stroke-width: 1; fill: rgb(247, 167, 153); fill-opacity: 1; stroke: rgb(255, 255, 255); stroke-opacity: 1; opacity: 0.7;"/><g class="slicetext"><text data-notex="1" class="slicetext" text-anchor="middle" x="0" y="0" style="font-family: 'Open Sans', verdana, arial, sans-serif; font-size: 12px; fill: rgb(68, 68, 68); fill-opacity: 1; white-space: pre;" transform="translate(374.98769068549666,298.269726163529)scale(0)rotate(66.78899082568796)">consolidate_intervals</text></g></g><g class="slice"><path class="surface" d="M350,240L392.73517269043555,319.206723294924A90,90 0,0,0 405.50033532291627,310.84993139759456L350,240A0,0 0,0,1 350,240Z" style="pointer-events: all; stroke-width: 1; fill: rgb(51, 255, 201); fill-opacity: 1; stroke: rgb(255, 255, 255); stroke-opacity: 1; opacity: 0.7;"/><g class="slicetext"><text data-notex="1" class="slicetext" text-anchor="middle" x="0" y="0" style="font-family: 'Open Sans', verdana, arial, sans-serif; font-size: 12px; fill: rgb(68, 68, 68); fill-opacity: 1; white-space: pre;" transform="translate(387.5819603539278,297.4071775221111)scale(0)rotate(56.78899082568796)">set_units_gas</text></g></g><g class="slice"><path class="surface" d="M350,240L405.50033532291627,310.84993139759456A90,90 0,0,0 416.2818931276923,300.8827614633993L350,240A0,0 0,0,1 350,240Z" style="pointer-events: all; stroke-width: 1; fill: rgb(224, 198, 253); fill-opacity: 1; stroke: rgb(255, 255, 255); stroke-opacity: 1; opacity: 0.7;"/><g class="slicetext"><text data-notex="1" class="slicetext" text-anchor="middle" x="0" y="0" style="font-family: 'Open Sans', verdana, arial, sans-serif; font-size: 12px; fill: rgb(68, 68, 68); fill-opacity: 1; white-space: pre;" transform="translate(392.67860425360186,286.16574632772324)scale(0)rotate(47.24770642201827)">out_of_physical_bounds</text></g></g><g class="slice"><path class="surface" d="M350,240L416.2818931276923,300.8827614633993A90,90 0,0,0 425.1410671256102,289.5360477957673L350,240A0,0 0,0,1 350,240Z" style="pointer-events: all; stroke-width: 1; fill: rgb(255, 219, 192); fill-opacity: 1; stroke: rgb(255, 255, 255); stroke-opacity: 1; opacity: 0.7;"/><g class="slicetext"><text data-notex="1" class="slicetext" text-anchor="middle" x="0" y="0" style="font-family: 'Open Sans', verdana, arial, sans-serif; font-size: 12px; fill: rgb(68, 68, 68); fill-opacity: 1; white-space: pre;" transform="translate(403.84655192498053,282.04177409113015)scale(0)rotate(37.98165137614666)">partition_fluxes</text></g></g><g class="slice"><path class="surface" d="M350,240L425.1410671256102,289.5360477957673A90,90 0,0,0 432.0778091025959,276.9219887454323L350,240A0,0 0,0,1 350,240Z" style="pointer-events: all; stroke-width: 1; fill: rgb(122, 230, 248); fill-opacity: 1; stroke: rgb(255, 255, 255); stroke-opacity: 1; opacity: 0.7;"/><g class="slicetext"><text data-notex="1" class="slicetext" text-anchor="middle" x="0" y="0" style="font-family: 'Open Sans', verdana, arial, sans-serif; font-size: 12px; fill: rgb(68, 68, 68); fill-opacity: 1; white-space: pre;" transform="translate(408.46821900235255,272.1529293191663)scale(0)rotate(28.807339449541246)">radiation_reverse</text></g></g><g class="slice"><path class="surface" d="M350,240L432.0778091025959,276.9219887454323A90,90 0,0,0 436.9146473323666,263.36330625340383L350,240A0,0 0,0,1 350,240Z" style="pointer-events: all; stroke-width: 1; fill: rgb(255, 204, 219); fill-opacity: 1; stroke: rgb(255, 255, 255); stroke-opacity: 1; opacity: 0.7;"/><g class="slicetext"><text data-notex="1" class="slicetext" text-anchor="middle" x="0" y="0" style="font-family: 'Open Sans', verdana, arial, sans-serif; font-size: 12px; fill: rgb(68, 68, 68); fill-opacity: 1; white-space: pre;" transform="translate(412.14826511306296,262.1703771579223)scale(0)rotate(19.633027522935663)">out_of_bounds_1d</text></g></g><g class="slice"><path class="surface" d="M350,240L436.9146473323666,263.36330625340383A90,90 0,0,0 439.4670297452951,249.78011188864818L350,240A0,0 0,0,1 350,240Z" style="pointer-events: all; stroke-width: 1; fill: rgb(232, 248, 214); fill-opacity: 1; stroke: rgb(255, 255, 255); stroke-opacity: 1; opacity: 0.7;"/><g class="slicetext"><text data-notex="1" class="slicetext" text-anchor="middle" x="0" y="0" style="font-family: 'Open Sans', verdana, arial, sans-serif; font-size: 12px; fill: rgb(68, 68, 68); fill-opacity: 1; white-space: pre;" transform="translate(420.7660243598612,253.2974579586111)scale(0)rotate(10.642201834862306)">rrtm_kgb11</text></g></g><g class="slice"><path class="surface" d="M350,240L439.4670297452951,249.78011188864818A90,90 0,0,0 440,239.99999999999986L350,240A0,0 0,0,1 350,240Z" style="pointer-events: all; stroke-width: 1; fill: rgb(255, 253, 255); fill-opacity: 1; stroke: rgb(255, 255, 255); stroke-opacity: 1; opacity: 0.7;"/><g class="slicetext"><text data-notex="1" class="slicetext" text-anchor="middle" x="0" y="0" style="font-family: 'Open Sans', verdana, arial, sans-serif; font-size: 12px; fill: rgb(68, 68, 68); fill-opacity: 1; white-space: pre;" transform="translate(414.6432097922016,243.52275192555618)scale(0)rotate(3.1192660550457845)">allocate_aerosol_arrays_direct</text></g></g><g class="slice"><path class="surface" d="M440,240L530,240A180,180 0,0,0 494.32478321416585,132.43440629000355L422.1623916070829,186.21720314500178A90,90 0,0,1 440,240Z" style="pointer-events: all; stroke-width: 1; fill: rgb(99, 110, 250); fill-opacity: 1; stroke: rgb(255, 255, 255); stroke-opacity: 1; opacity: 0.7;"/><g class="slicetext"><text data-notex="1" class="slicetext" text-anchor="middle" x="0" y="0" style="font-family: 'Open Sans', verdana, arial, sans-serif; font-size: 12px; fill: rgb(255, 255, 255); fill-opacity: 1; white-space: pre;" transform="translate(479.9428133478723,200.3283495482052)scale(0.8562993726346438)">cloud_optics</text></g></g></g></g><g class="glimages"/><defs id="topdefs-4a75c7"><g class="clips"/></defs><g class="layer-above"><g class="imagelayer"/><g class="shapelayer"/></g><g class="infolayer"><g class="g-gtitle"/></g></svg>